<svg width="168" height="100" viewBox="0 0 168 100" fill="none" xmlns="http://www.w3.org/2000/svg">
<path d="M117.875 75.0538L84 99.8448L50.125 75.0538V67.0099L83.9258 91.7472L84 91.8019L84.0742 91.7472L117.875 67.0099V75.0538Z" fill="#00FF40" stroke="black" stroke-width="0.25"/>
<path d="M117.875 53.6536L84 78.4446L50.125 53.6536V45.6097L83.9258 70.347L84 70.4017L84.0742 70.347L117.875 45.6097V53.6536Z" fill="#00FF40" stroke="black" stroke-width="0.25"/>
<path d="M117.842 30.7852L84 57.041L50.1582 30.7852V22.2539L83.9238 48.4512L84 48.5107L84.0762 48.4512L117.842 22.2539V30.7852Z" fill="#00FF40" stroke="black" stroke-width="0.25"/>
<mask id="path-4-inside-1_84_14" fill="white">
<path d="M34.669 0C30.603 0 26.7034 1.17063 23.8283 3.25437C20.9532 5.33811 19.338 8.16426 19.338 11.1111V33.3333C19.338 36.2802 17.7228 39.1063 14.8476 41.1901C11.9725 43.2738 8.07301 44.4444 4.00697 44.4444H0V55.5556H4.00697C8.07301 55.5556 11.9725 56.7262 14.8476 58.8099C17.7228 60.8937 19.338 63.7198 19.338 66.6667V88.8889C19.338 91.8357 20.9532 94.6619 23.8283 96.7456C26.7034 98.8294 30.603 100 34.669 100H50V88.8889H34.669V61.1111C34.669 58.1643 33.0538 55.3381 30.1786 53.2544C27.3035 51.1706 23.404 50 19.338 50C23.404 50 27.3035 48.8294 30.1786 46.7456C33.0538 44.6619 34.669 41.8357 34.669 38.8889V11.1111H50V0"/>
</mask>
<path d="M34.669 0C30.603 0 26.7034 1.17063 23.8283 3.25437C20.9532 5.33811 19.338 8.16426 19.338 11.1111V33.3333C19.338 36.2802 17.7228 39.1063 14.8476 41.1901C11.9725 43.2738 8.07301 44.4444 4.00697 44.4444H0V55.5556H4.00697C8.07301 55.5556 11.9725 56.7262 14.8476 58.8099C17.7228 60.8937 19.338 63.7198 19.338 66.6667V88.8889C19.338 91.8357 20.9532 94.6619 23.8283 96.7456C26.7034 98.8294 30.603 100 34.669 100H50V88.8889H34.669V61.1111C34.669 58.1643 33.0538 55.3381 30.1786 53.2544C27.3035 51.1706 23.404 50 19.338 50C23.404 50 27.3035 48.8294 30.1786 46.7456C33.0538 44.6619 34.669 41.8357 34.669 38.8889V11.1111H50V0" fill="#0044FF"/>
<path d="M19.338 11.1111H19.088H19.338ZM19.338 33.3333H19.588H19.338ZM0 44.4444V44.1944H-0.25V44.4444H0ZM0 55.5556H-0.25V55.8056H0V55.5556ZM19.338 66.6667H19.588H19.338ZM19.338 88.8889H19.088H19.338ZM50 100V100.25H50.25V100H50ZM50 88.8889H50.25V88.6389H50V88.8889ZM34.669 88.8889H34.419V89.1389H34.669V88.8889ZM34.669 61.1111H34.919H34.669ZM34.669 38.8889H34.919H34.669ZM34.669 11.1111V10.8611H34.419V11.1111H34.669ZM50 11.1111V11.3611H50.25V11.1111H50ZM34.669 0V-0.25C30.5582 -0.25 26.6054 0.932924 23.6816 3.05194L23.8283 3.25437L23.975 3.4568C26.8015 1.40834 30.6477 0.25 34.669 0.25V0ZM23.8283 3.25437L23.6816 3.05194C20.7566 5.17181 19.088 8.06722 19.088 11.1111H19.338H19.588C19.588 8.2613 21.1498 5.5044 23.975 3.4568L23.8283 3.25437ZM19.338 11.1111H19.088V33.3333H19.338H19.588V11.1111H19.338ZM19.338 33.3333H19.088C19.088 36.1831 17.5262 38.94 14.7009 40.9876L14.8476 41.1901L14.9943 41.3925C17.9193 39.2726 19.588 36.3772 19.588 33.3333H19.338ZM14.8476 41.1901L14.7009 40.9876C11.8745 43.0361 8.02826 44.1944 4.00697 44.1944V44.4444V44.6944C8.11775 44.6944 12.0705 43.5115 14.9943 41.3925L14.8476 41.1901ZM4.00697 44.4444V44.1944H0V44.4444V44.6944H4.00697V44.4444ZM0 44.4444H-0.25V55.5556H0H0.25V44.4444H0ZM0 55.5556V55.8056H4.00697V55.5556V55.3056H0V55.5556ZM4.00697 55.5556V55.8056C8.02826 55.8056 11.8745 56.9639 14.7009 59.0124L14.8476 58.8099L14.9943 58.6075C12.0705 56.4885 8.11776 55.3056 4.00697 55.3056V55.5556ZM14.8476 58.8099L14.7009 59.0124C17.5262 61.06 19.088 63.8168 19.088 66.6667H19.338H19.588C19.588 63.6228 17.9193 60.7274 14.9943 58.6075L14.8476 58.8099ZM19.338 66.6667H19.088V88.8889H19.338H19.588V66.6667H19.338ZM19.338 88.8889H19.088C19.088 91.9328 20.7566 94.8282 23.6816 96.9481L23.8283 96.7456L23.975 96.5432C21.1498 94.4956 19.588 91.7387 19.588 88.8889H19.338ZM23.8283 96.7456L23.6816 96.9481C26.6054 99.0671 30.5582 100.25 34.669 100.25V100V99.75C30.6477 99.75 26.8015 98.5917 23.975 96.5432L23.8283 96.7456ZM34.669 100V100.25H50V100V99.75H34.669V100ZM50 100H50.25V88.8889H50H49.75V100H50ZM50 88.8889V88.6389H34.669V88.8889V89.1389H50V88.8889ZM34.669 88.8889H34.919V61.1111H34.669H34.419V88.8889H34.669ZM34.669 61.1111H34.919C34.919 58.0672 33.2503 55.1718 30.3253 53.0519L30.1786 53.2544L30.0319 53.4568C32.8572 55.5044 34.419 58.2613 34.419 61.1111H34.669ZM30.1786 53.2544L30.3253 53.0519C27.4015 50.9329 23.4488 49.75 19.338 49.75V50V50.25C23.3593 50.25 27.2055 51.4083 30.0319 53.4568L30.1786 53.2544ZM19.338 50V50.25C23.4488 50.25 27.4015 49.0671 30.3253 46.9481L30.1786 46.7456L30.0319 46.5432C27.2055 48.5917 23.3593 49.75 19.338 49.75V50ZM30.1786 46.7456L30.3253 46.9481C33.2503 44.8282 34.919 41.9328 34.919 38.8889H34.669H34.419C34.419 41.7387 32.8572 44.4956 30.0319 46.5432L30.1786 46.7456ZM34.669 38.8889H34.919V11.1111H34.669H34.419V38.8889H34.669ZM34.669 11.1111V11.3611H50V11.1111V10.8611H34.669V11.1111ZM50 11.1111H50.25V0H50H49.75V11.1111H50Z" fill="black" mask="url(#path-4-inside-1_84_14)"/>
<mask id="path-6-inside-2_84_14" fill="white">
<path d="M133.331 100C137.397 100 141.297 98.8294 144.172 96.7456C147.047 94.6619 148.662 91.8357 148.662 88.8889V66.6667C148.662 63.7198 150.277 60.8937 153.152 58.8099C156.027 56.7262 159.927 55.5556 163.993 55.5556H168V44.4444H163.993C159.927 44.4444 156.027 43.2738 153.152 41.1901C150.277 39.1063 148.662 36.2802 148.662 33.3333V11.1111C148.662 8.16426 147.047 5.3381 144.172 3.25436C141.297 1.17063 137.397 3.8147e-06 133.331 3.8147e-06H118V11.1111H133.331V38.8889C133.331 41.8357 134.946 44.6619 137.821 46.7456C140.696 48.8294 144.596 50 148.662 50C144.596 50 140.696 51.1706 137.821 53.2544C134.946 55.3381 133.331 58.1643 133.331 61.1111V88.8889H118V100"/>
</mask>
<path d="M133.331 100C137.397 100 141.297 98.8294 144.172 96.7456C147.047 94.6619 148.662 91.8357 148.662 88.8889V66.6667C148.662 63.7198 150.277 60.8937 153.152 58.8099C156.027 56.7262 159.927 55.5556 163.993 55.5556H168V44.4444H163.993C159.927 44.4444 156.027 43.2738 153.152 41.1901C150.277 39.1063 148.662 36.2802 148.662 33.3333V11.1111C148.662 8.16426 147.047 5.3381 144.172 3.25436C141.297 1.17063 137.397 3.8147e-06 133.331 3.8147e-06H118V11.1111H133.331V38.8889C133.331 41.8357 134.946 44.6619 137.821 46.7456C140.696 48.8294 144.596 50 148.662 50C144.596 50 140.696 51.1706 137.821 53.2544C134.946 55.3381 133.331 58.1643 133.331 61.1111V88.8889H118V100" fill="#0044FF"/>
<path d="M148.662 88.8889H148.912H148.662ZM148.662 66.6667H148.412H148.662ZM168 55.5556V55.8056H168.25V55.5556H168ZM168 44.4444H168.25V44.1944H168V44.4444ZM148.662 33.3333H148.412H148.662ZM148.662 11.1111H148.912H148.662ZM118 0V-0.25H117.75V0H118ZM118 11.1111H117.75V11.3611H118V11.1111ZM133.331 11.1111H133.581V10.8611H133.331V11.1111ZM133.331 38.8889H133.081H133.331ZM133.331 61.1111H133.081H133.331ZM133.331 88.8889V89.1389H133.581V88.8889H133.331ZM118 88.8889V88.6389H117.75V88.8889H118ZM117.75 100V100.25H118.25V100H118H117.75ZM133.331 100V100.25C137.442 100.25 141.395 99.0671 144.318 96.9481L144.172 96.7456L144.025 96.5432C141.199 98.5917 137.352 99.75 133.331 99.75V100ZM144.172 96.7456L144.318 96.9481C147.243 94.8282 148.912 91.9328 148.912 88.8889H148.662H148.412C148.412 91.7387 146.85 94.4956 144.025 96.5432L144.172 96.7456ZM148.662 88.8889H148.912V66.6667H148.662H148.412V88.8889H148.662ZM148.662 66.6667H148.912C148.912 63.8169 150.474 61.06 153.299 59.0124L153.152 58.8099L153.006 58.6075C150.081 60.7274 148.412 63.6228 148.412 66.6667H148.662ZM153.152 58.8099L153.299 59.0124C156.126 56.9639 159.972 55.8056 163.993 55.8056V55.5556V55.3056C159.882 55.3056 155.929 56.4885 153.006 58.6075L153.152 58.8099ZM163.993 55.5556V55.8056H168V55.5556V55.3056H163.993V55.5556ZM168 55.5556H168.25V44.4444H168H167.75V55.5556H168ZM168 44.4444V44.1944H163.993V44.4444V44.6944H168V44.4444ZM163.993 44.4444V44.1944C159.972 44.1944 156.126 43.0361 153.299 40.9876L153.152 41.1901L153.006 41.3925C155.929 43.5115 159.882 44.6944 163.993 44.6944V44.4444ZM153.152 41.1901L153.299 40.9876C150.474 38.94 148.912 36.1832 148.912 33.3333H148.662H148.412C148.412 36.3772 150.081 39.2726 153.006 41.3925L153.152 41.1901ZM148.662 33.3333H148.912V11.1111H148.662H148.412V33.3333H148.662ZM148.662 11.1111H148.912C148.912 8.06723 147.243 5.17181 144.318 3.05194L144.172 3.25436L144.025 3.45679C146.85 5.50439 148.412 8.2613 148.412 11.1111H148.662ZM144.172 3.25436L144.318 3.05194C141.395 0.932922 137.442 -0.25 133.331 -0.25V0V0.25C137.352 0.25 141.199 1.40833 144.025 3.45679L144.172 3.25436ZM133.331 0V-0.25H118V0V0.25H133.331V0ZM118 0H117.75V11.1111H118H118.25V0H118ZM118 11.1111V11.3611H133.331V11.1111V10.8611H118V11.1111ZM133.331 11.1111H133.081V38.8889H133.331H133.581V11.1111H133.331ZM133.331 38.8889H133.081C133.081 41.9328 134.75 44.8282 137.675 46.9481L137.821 46.7456L137.968 46.5432C135.143 44.4956 133.581 41.7387 133.581 38.8889H133.331ZM137.821 46.7456L137.675 46.9481C140.598 49.0671 144.551 50.25 148.662 50.25V50V49.75C144.641 49.75 140.795 48.5917 137.968 46.5432L137.821 46.7456ZM148.662 50V49.75C144.551 49.75 140.598 50.9329 137.675 53.0519L137.821 53.2544L137.968 53.4568C140.795 51.4083 144.641 50.25 148.662 50.25V50ZM137.821 53.2544L137.675 53.0519C134.75 55.1718 133.081 58.0672 133.081 61.1111H133.331H133.581C133.581 58.2613 135.143 55.5044 137.968 53.4568L137.821 53.2544ZM133.331 61.1111H133.081V88.8889H133.331H133.581V61.1111H133.331ZM133.331 88.8889V88.6389H118V88.8889V89.1389H133.331V88.8889ZM118 88.8889H117.75V100H118H118.25V88.8889H118Z" fill="black" mask="url(#path-6-inside-2_84_14)"/>
<path d="M117.875 75.0537L84 99.8447L50.125 75.0537V67.0098L83.9258 91.7471L84 91.8018L84.0742 91.7471L117.875 67.0098V75.0537Z" fill="#00FF40" stroke="black" stroke-width="0.25"/>
</svg>
